<svg width="24" height="16" viewBox="0 0 24 16" fill="none" xmlns="http://www.w3.org/2000/svg">
<path fill-rule="evenodd" clip-rule="evenodd" d="M1.26431 0H22.735C23.431 0 24.0003 0.569333 24.0003 1.26533V1.40133C24.0003 2.09733 23.431 2.66667 22.735 2.66667H1.26431C0.568305 2.66667 0.000305176 2.09733 0.000305176 1.40133V1.26533C0.000305176 0.569333 0.568305 0 1.26431 0ZM22.7351 6.66667H1.26441C0.568406 6.66667 0.000406174 7.236 0.000406174 7.932V8.068C0.000406174 8.764 0.568406 9.33333 1.26441 9.33333H22.7351C23.4311 9.33333 24.0004 8.764 24.0004 8.068V7.932C24.0004 7.236 23.4311 6.66667 22.7351 6.66667ZM22.7351 13.3333H1.26441C0.568406 13.3333 0.000406174 13.9027 0.000406174 14.5987V14.7347C0.000406174 15.4307 0.568406 16 1.26441 16H22.7351C23.4311 16 24.0004 15.4307 24.0004 14.7347V14.5987C24.0004 13.9027 23.4311 13.3333 22.7351 13.3333Z" fill="white"/>
</svg>
