<svg width="46" height="46" viewBox="0 0 46 46" fill="none" xmlns="http://www.w3.org/2000/svg">
<path d="M17.6862 17.3137C17.2956 17.7042 17.2956 18.3374 17.6862 18.7279L21.9288 22.9706L17.6862 27.2132C17.2956 27.6037 17.2956 28.2369 17.6862 28.6274C18.0767 29.0179 18.7098 29.0179 19.1004 28.6274L23.343 24.3848L27.5856 28.6274C27.9762 29.0179 28.6093 29.0179 28.9999 28.6274C29.3904 28.2369 29.3904 27.6037 28.9999 27.2132L24.7572 22.9706L28.9999 18.7279C29.3904 18.3374 29.3904 17.7042 28.9999 17.3137C28.6093 16.9232 27.9762 16.9232 27.5856 17.3137L23.343 21.5563L19.1004 17.3137C18.7098 16.9232 18.0767 16.9232 17.6862 17.3137Z" fill="white"/>
</svg>
