<svg width="105" height="29" viewBox="0 0 105 29" fill="none" xmlns="http://www.w3.org/2000/svg">
<path d="M0.836874 0.8H4.35687V24.84H17.4769V28H0.836874V0.8ZM32.1444 28.48C30.331 28.48 28.6244 28.1333 27.0244 27.44C25.4244 26.7467 24.0244 25.7867 22.8244 24.56C21.651 23.3067 20.7177 21.8133 20.0244 20.08C19.331 18.3467 18.9844 16.44 18.9844 14.36C18.9844 12.28 19.331 10.3867 20.0244 8.68C20.7177 6.94667 21.651 5.46667 22.8244 4.24C24.0244 2.98667 25.4244 2.01333 27.0244 1.32C28.6244 0.626665 30.331 0.279999 32.1444 0.279999C33.9844 0.279999 35.7044 0.613332 37.3044 1.28C38.9044 1.94667 40.291 2.90667 41.4644 4.16C42.6644 5.38667 43.5977 6.86667 44.2644 8.6C44.9577 10.3333 45.3044 12.2533 45.3044 14.36C45.3044 16.44 44.9577 18.3467 44.2644 20.08C43.571 21.8133 42.6244 23.3067 41.4244 24.56C40.251 25.7867 38.8644 26.7467 37.2644 27.44C35.6644 28.1333 33.9577 28.48 32.1444 28.48ZM32.1444 25.4C33.5044 25.4 34.7577 25.1467 35.9044 24.64C37.0777 24.1067 38.091 23.36 38.9444 22.4C39.7977 21.44 40.4644 20.28 40.9444 18.92C41.4244 17.56 41.6644 16.04 41.6644 14.36C41.6644 12.6533 41.4244 11.12 40.9444 9.76C40.491 8.4 39.8377 7.25333 38.9844 6.32C38.1577 5.36 37.1577 4.62667 35.9844 4.12C34.811 3.61333 33.531 3.36 32.1444 3.36C30.7844 3.36 29.5177 3.62666 28.3444 4.16C27.1977 4.66667 26.1977 5.4 25.3444 6.36C24.491 7.29333 23.8244 8.44 23.3444 9.8C22.8644 11.16 22.6244 12.68 22.6244 14.36C22.6244 16.04 22.8644 17.56 23.3444 18.92C23.8244 20.28 24.491 21.44 25.3444 22.4C26.1977 23.36 27.1977 24.1067 28.3444 24.64C29.5177 25.1467 30.7844 25.4 32.1444 25.4ZM62.0062 28.48C60.1929 28.48 58.4996 28.1333 56.9262 27.44C55.3529 26.7467 53.9796 25.7867 52.8062 24.56C51.6329 23.3067 50.6996 21.8133 50.0062 20.08C49.3396 18.3467 49.0062 16.44 49.0062 14.36C49.0062 12.28 49.3396 10.3867 50.0062 8.68C50.6996 6.94667 51.6329 5.46667 52.8062 4.24C54.0062 2.98667 55.3929 2.01333 56.9662 1.32C58.5396 0.626665 60.2196 0.279999 62.0062 0.279999C63.3129 0.279999 64.5796 0.453333 65.8063 0.8C67.0596 1.14667 68.2062 1.68 69.2462 2.4C70.2863 3.12 71.1796 4.02667 71.9263 5.12C72.6996 6.18667 73.2729 7.45333 73.6462 8.92H70.1262C69.8329 7.93333 69.4196 7.09333 68.8863 6.4C68.3529 5.70667 67.7263 5.13333 67.0063 4.68C66.2863 4.22667 65.4996 3.89333 64.6463 3.68C63.7929 3.46666 62.9129 3.36 62.0062 3.36C60.6462 3.36 59.3929 3.62666 58.2463 4.16C57.0996 4.66667 56.1129 5.4 55.2862 6.36C54.4596 7.29333 53.8062 8.44 53.3262 9.8C52.8729 11.16 52.6462 12.68 52.6462 14.36C52.6462 16.04 52.8729 17.56 53.3262 18.92C53.8062 20.28 54.4596 21.44 55.2862 22.4C56.1129 23.36 57.0996 24.1067 58.2463 24.64C59.3929 25.1467 60.6462 25.4 62.0062 25.4C63.3396 25.4 64.5396 25.1867 65.6062 24.76C66.6996 24.3067 67.6329 23.72 68.4063 23C69.2062 22.2533 69.8329 21.3867 70.2863 20.4C70.7396 19.4133 70.9929 18.36 71.0462 17.24H63.4862V14.04H74.3663V28H71.0862V23.48C70.6862 24.1467 70.2063 24.7867 69.6463 25.4C69.1129 25.9867 68.4729 26.52 67.7262 27C66.9796 27.4533 66.1263 27.8133 65.1663 28.08C64.2329 28.3467 63.1796 28.48 62.0062 28.48ZM91.6413 28.48C89.8279 28.48 88.1213 28.1333 86.5213 27.44C84.9213 26.7467 83.5213 25.7867 82.3213 24.56C81.1479 23.3067 80.2146 21.8133 79.5213 20.08C78.8279 18.3467 78.4813 16.44 78.4813 14.36C78.4813 12.28 78.8279 10.3867 79.5213 8.68C80.2146 6.94667 81.1479 5.46667 82.3213 4.24C83.5213 2.98667 84.9213 2.01333 86.5213 1.32C88.1213 0.626665 89.8279 0.279999 91.6413 0.279999C93.4813 0.279999 95.2013 0.613332 96.8013 1.28C98.4013 1.94667 99.7879 2.90667 100.961 4.16C102.161 5.38667 103.095 6.86667 103.761 8.6C104.455 10.3333 104.801 12.2533 104.801 14.36C104.801 16.44 104.455 18.3467 103.761 20.08C103.068 21.8133 102.121 23.3067 100.921 24.56C99.7479 25.7867 98.3613 26.7467 96.7613 27.44C95.1613 28.1333 93.4546 28.48 91.6413 28.48ZM91.6413 25.4C93.0013 25.4 94.2546 25.1467 95.4013 24.64C96.5746 24.1067 97.5879 23.36 98.4413 22.4C99.2946 21.44 99.9613 20.28 100.441 18.92C100.921 17.56 101.161 16.04 101.161 14.36C101.161 12.6533 100.921 11.12 100.441 9.76C99.9879 8.4 99.3346 7.25333 98.4813 6.32C97.6546 5.36 96.6546 4.62667 95.4813 4.12C94.3079 3.61333 93.0279 3.36 91.6413 3.36C90.2813 3.36 89.0146 3.62666 87.8413 4.16C86.6946 4.66667 85.6946 5.4 84.8413 6.36C83.9879 7.29333 83.3213 8.44 82.8413 9.8C82.3613 11.16 82.1213 12.68 82.1213 14.36C82.1213 16.04 82.3613 17.56 82.8413 18.92C83.3213 20.28 83.9879 21.44 84.8413 22.4C85.6946 23.36 86.6946 24.1067 87.8413 24.64C89.0146 25.1467 90.2813 25.4 91.6413 25.4Z" fill="white"/>
</svg>
