<svg width="42" height="42" viewBox="0 0 42 42" fill="none" xmlns="http://www.w3.org/2000/svg">
<g id="27) Icon/star">
<path id="&#240;&#159;&#142;&#168; Icon &#208;&#161;olor" fill-rule="evenodd" clip-rule="evenodd" d="M20.4992 27.7563C20.7841 27.7563 21.0689 27.8244 21.3287 27.9588L28.0815 31.4884L26.7969 24.0404C26.6948 23.4563 26.8901 22.8615 27.3165 22.4476L32.756 17.1873L25.2256 16.0908C24.6433 16.0066 24.1399 15.6429 23.8783 15.1161L20.4992 8.31854L17.1201 15.1161C16.8585 15.6429 16.3551 16.0066 15.7728 16.0908L8.24239 17.1873L13.6819 22.4476C14.1083 22.8615 14.3036 23.4563 14.2015 24.0404L12.9169 31.4884L19.6696 27.9588C19.9294 27.8244 20.2143 27.7563 20.4992 27.7563ZM30.4644 36.5444C30.1795 36.5444 29.8947 36.4781 29.6349 36.342L20.4992 31.569L11.3635 36.342C10.7579 36.6573 10.0269 36.6018 9.48042 36.2004C8.92859 35.7991 8.65446 35.12 8.76913 34.4482L10.5106 24.3647L3.12896 17.2249C2.63625 16.7501 2.46067 16.037 2.67029 15.3866C2.87813 14.7362 3.44071 14.2633 4.11617 14.1647L14.3305 12.6812L18.8938 3.49712C19.4994 2.27879 21.4989 2.27879 22.1045 3.49712L26.6679 12.6812L36.8822 14.1647C37.5576 14.2633 38.1202 14.7362 38.328 15.3866C38.5377 16.037 38.3621 16.7501 37.8694 17.2249L30.4877 24.3647L32.2292 34.4482C32.3439 35.12 32.0698 35.7991 31.5179 36.2004C31.208 36.4298 30.8371 36.5444 30.4644 36.5444Z" fill="#252832"/>
<mask id="mask0" mask-type="alpha" maskUnits="userSpaceOnUse" x="2" y="2" width="37" height="35">
<path id="&#240;&#159;&#142;&#168; Icon &#208;&#161;olor_2" fill-rule="evenodd" clip-rule="evenodd" d="M20.4992 27.7563C20.7841 27.7563 21.0689 27.8244 21.3287 27.9588L28.0815 31.4884L26.7969 24.0404C26.6948 23.4563 26.8901 22.8615 27.3165 22.4476L32.756 17.1873L25.2256 16.0908C24.6433 16.0066 24.1399 15.6429 23.8783 15.1161L20.4992 8.31854L17.1201 15.1161C16.8585 15.6429 16.3551 16.0066 15.7728 16.0908L8.24239 17.1873L13.6819 22.4476C14.1083 22.8615 14.3036 23.4563 14.2015 24.0404L12.9169 31.4884L19.6696 27.9588C19.9294 27.8244 20.2143 27.7563 20.4992 27.7563ZM30.4644 36.5444C30.1795 36.5444 29.8947 36.4781 29.6349 36.342L20.4992 31.569L11.3635 36.342C10.7579 36.6573 10.0269 36.6018 9.48042 36.2004C8.92859 35.7991 8.65446 35.12 8.76913 34.4482L10.5106 24.3647L3.12896 17.2249C2.63625 16.7501 2.46067 16.037 2.67029 15.3866C2.87813 14.7362 3.44071 14.2633 4.11617 14.1647L14.3305 12.6812L18.8938 3.49712C19.4994 2.27879 21.4989 2.27879 22.1045 3.49712L26.6679 12.6812L36.8822 14.1647C37.5576 14.2633 38.1202 14.7362 38.328 15.3866C38.5377 16.037 38.3621 16.7501 37.8694 17.2249L30.4877 24.3647L32.2292 34.4482C32.3439 35.12 32.0698 35.7991 31.5179 36.2004C31.208 36.4298 30.8371 36.5444 30.4644 36.5444Z" fill="white"/>
</mask>
<g mask="url(#mask0)">
</g>
</g>
</svg>
