<svg width="40" height="40" viewBox="0 0 40 40" fill="none" xmlns="http://www.w3.org/2000/svg">
<g clip-path="url(#clip0)">
<path fill-rule="evenodd" clip-rule="evenodd" d="M33.5445 6.45626C32.9373 5.84726 31.952 5.84726 31.3448 6.45626L6.45626 31.3448C6.15176 31.6493 5.99951 32.0465 5.99951 32.4455C5.99951 32.8428 6.15176 33.2418 6.45626 33.5445C7.06351 34.1518 8.04701 34.1518 8.65601 33.5445L33.5445 8.65601C34.1518 8.04701 34.1518 7.06351 33.5445 6.45626ZM27 32.25C25.5528 32.25 24.375 31.0723 24.375 29.625C24.375 28.1778 25.5528 27 27 27C28.4473 27 29.625 28.1778 29.625 29.625C29.625 31.0723 28.4473 32.25 27 32.25ZM27 23.5C23.6225 23.5 20.875 26.2475 20.875 29.625C20.875 33.0025 23.6225 35.75 27 35.75C30.3775 35.75 33.125 33.0025 33.125 29.625C33.125 26.2475 30.3775 23.5 27 23.5ZM13 9.50002C14.4473 9.50002 15.625 10.6778 15.625 12.125C15.625 13.5723 14.4473 14.75 13 14.75C11.5528 14.75 10.375 13.5723 10.375 12.125C10.375 10.6778 11.5528 9.50002 13 9.50002ZM13 18.25C16.3775 18.25 19.125 15.5025 19.125 12.125C19.125 8.74752 16.3775 6.00002 13 6.00002C9.62252 6.00002 6.87502 8.74752 6.87502 12.125C6.87502 15.5025 9.62252 18.25 13 18.25Z" fill="#252832"/>
<mask id="mask0" mask-type="alpha" maskUnits="userSpaceOnUse" x="5" y="5" width="29" height="31">
<path fill-rule="evenodd" clip-rule="evenodd" d="M33.5445 6.45626C32.9373 5.84726 31.952 5.84726 31.3448 6.45626L6.45626 31.3448C6.15176 31.6493 5.99951 32.0465 5.99951 32.4455C5.99951 32.8428 6.15176 33.2418 6.45626 33.5445C7.06351 34.1518 8.04701 34.1518 8.65601 33.5445L33.5445 8.65601C34.1518 8.04701 34.1518 7.06351 33.5445 6.45626ZM27 32.25C25.5528 32.25 24.375 31.0723 24.375 29.625C24.375 28.1778 25.5528 27 27 27C28.4473 27 29.625 28.1778 29.625 29.625C29.625 31.0723 28.4473 32.25 27 32.25ZM27 23.5C23.6225 23.5 20.875 26.2475 20.875 29.625C20.875 33.0025 23.6225 35.75 27 35.75C30.3775 35.75 33.125 33.0025 33.125 29.625C33.125 26.2475 30.3775 23.5 27 23.5ZM13 9.50002C14.4473 9.50002 15.625 10.6778 15.625 12.125C15.625 13.5723 14.4473 14.75 13 14.75C11.5528 14.75 10.375 13.5723 10.375 12.125C10.375 10.6778 11.5528 9.50002 13 9.50002ZM13 18.25C16.3775 18.25 19.125 15.5025 19.125 12.125C19.125 8.74752 16.3775 6.00002 13 6.00002C9.62252 6.00002 6.87502 8.74752 6.87502 12.125C6.87502 15.5025 9.62252 18.25 13 18.25Z" fill="white"/>
</mask>
<g mask="url(#mask0)">
</g>
</g>
<defs>
<clipPath id="clip0">
<rect width="40" height="40" fill="white"/>
</clipPath>
</defs>
</svg>
