<svg width="40" height="40" viewBox="0 0 40 40" fill="none" xmlns="http://www.w3.org/2000/svg">
<g clip-path="url(#clip0)">
<path fill-rule="evenodd" clip-rule="evenodd" d="M32.25 30.5C32.25 31.466 31.466 32.25 30.5 32.25C29.534 32.25 28.75 31.466 28.75 30.5C28.75 29.534 29.534 28.75 30.5 28.75C31.466 28.75 32.25 29.534 32.25 30.5ZM20 25.25H6L6.028 7.75H25.25L25.222 25.25H20ZM11.25 30.5C11.25 31.466 10.466 32.25 9.5 32.25C8.534 32.25 7.75 31.466 7.75 30.5C7.75 29.534 8.534 28.75 9.5 28.75C10.466 28.75 11.25 29.534 11.25 30.5ZM34 20.84V25.25H28.75V16.6418L34 20.84ZM36.8438 18.6332L28.75 12.1582V7.75C28.75 5.81975 27.3273 4.25 25.5773 4.25H5.671C3.92275 4.25 2.5 5.81975 2.5 7.75V25.25C2.5 26.7778 3.39775 28.0658 4.63675 28.5435C4.39175 29.149 4.25 29.807 4.25 30.5C4.25 33.3945 6.6055 35.75 9.5 35.75C12.3945 35.75 14.75 33.3945 14.75 30.5C14.75 29.8822 14.624 29.2995 14.4263 28.75H20H25.5738C25.376 29.2995 25.25 29.8822 25.25 30.5C25.25 33.3945 27.6055 35.75 30.5 35.75C33.3945 35.75 35.75 33.3945 35.75 30.5C35.75 29.8822 35.624 29.2995 35.4263 28.75H35.75C36.7178 28.75 37.5 27.9678 37.5 27V20C37.5 19.468 37.2585 18.9657 36.8438 18.6332Z" fill="#252832"/>
<mask id="mask0" mask-type="alpha" maskUnits="userSpaceOnUse" x="2" y="4" width="36" height="32">
<path fill-rule="evenodd" clip-rule="evenodd" d="M32.25 30.5C32.25 31.466 31.466 32.25 30.5 32.25C29.534 32.25 28.75 31.466 28.75 30.5C28.75 29.534 29.534 28.75 30.5 28.75C31.466 28.75 32.25 29.534 32.25 30.5ZM20 25.25H6L6.028 7.75H25.25L25.222 25.25H20ZM11.25 30.5C11.25 31.466 10.466 32.25 9.5 32.25C8.534 32.25 7.75 31.466 7.75 30.5C7.75 29.534 8.534 28.75 9.5 28.75C10.466 28.75 11.25 29.534 11.25 30.5ZM34 20.84V25.25H28.75V16.6418L34 20.84ZM36.8438 18.6332L28.75 12.1582V7.75C28.75 5.81975 27.3273 4.25 25.5773 4.25H5.671C3.92275 4.25 2.5 5.81975 2.5 7.75V25.25C2.5 26.7778 3.39775 28.0658 4.63675 28.5435C4.39175 29.149 4.25 29.807 4.25 30.5C4.25 33.3945 6.6055 35.75 9.5 35.75C12.3945 35.75 14.75 33.3945 14.75 30.5C14.75 29.8822 14.624 29.2995 14.4263 28.75H20H25.5738C25.376 29.2995 25.25 29.8822 25.25 30.5C25.25 33.3945 27.6055 35.75 30.5 35.75C33.3945 35.75 35.75 33.3945 35.75 30.5C35.75 29.8822 35.624 29.2995 35.4263 28.75H35.75C36.7178 28.75 37.5 27.9678 37.5 27V20C37.5 19.468 37.2585 18.9657 36.8438 18.6332Z" fill="white"/>
</mask>
<g mask="url(#mask0)">
</g>
</g>
<defs>
<clipPath id="clip0">
<rect width="40" height="40" fill="white"/>
</clipPath>
</defs>
</svg>
